<svg xmlns="http://www.w3.org/2000/svg" viewBox="0 0 109.9 127.2"><defs><style>  .cls-1,.cls-4{fill:#d24b49;}.cls-1,.cls-2,.cls-3{fill-rule:evenodd;}.cls-2{fill:#fff;}.cls-3{fill:#fcded9;}</style></defs><title>  404-error-pic</title><g data-name="Layer 2"><g data-name="Layer 1"><path class="cls-1" d="M83.3 8H8V115.6L10 117.6l12.2-12.2a4 4 0 0 1 5.6 0L40 117.6l12.2-12.2a4 4 0 0 1 5.6 0l12.2 12.2 12.2-12.2a4 4 0 0 1 5.6 0L99.9 117.6l2.1-2.1V26.6ZM4 0H84.9a4 4 0 0 1 2.8 1.2l21 21A4 4 0 0 1 109.9 25v92.2a4 4 0 0 1-1.2 2.8l-6 6a4 4 0 0 1-5.6 0L84.9 113.9 72.8 126.1a4 4 0 0 1-5.6 0L55 113.9 42.8 126.1a4 4 0 0 1-5.6 0L25 113.9 12.8 126.1a4 4 0 0 1-5.6 0l-6-6A4 4 0 0 1 0 117.2H0V4A4 4 0 0 1 4 0Z"/><polygon class="cls-2" points="4 4 84.9 4 105.9 25 105.9 117.2 99.9 123.3 84.9 108.3 69.9 123.3 55 108.3 40 123.3 25 108.3 10 123.3 4 117.2 4 4"/><path class="cls-1" d="M81 25V4h0a4 4 0 0 1 6.8-2.8l21 21a4 4 0 0 1-2.8 6.8h-21a4 4 0 0 1-4-4m8-11.4V21h7.5Z"/><polygon class="cls-3" points="84.9 4 84.9 25 105.9 25 84.9 4"/><polygon class="cls-3" points="40 115.8 25 100.8 10 115.8 4 109.8 4 117.2 10 123.3 25 108.3 40 123.3 55 108.3 69.9 123.3 84.9 108.3 99.9 123.3 105.9 117.2 105.9 109.8 99.9 115.8 84.9 100.8 69.9 115.8 55 100.8 40 115.8"/><rect class="cls-4" x="25.4" y="37" width="21" height="4" transform="translate(-17.08 36.82)rotate(-45)"/><rect class="cls-4" x="33.9" y="28.5" width="4" height="21" transform="translate(-17.08 36.82)rotate(-45)"/><rect class="cls-4" x="63.5" y="37" width="21" height="4" transform="translate(-5.92 63.76)rotate(-45)"/><rect class="cls-4" x="72" y="28.5" width="4" height="21" transform="translate(-5.92 63.77)rotate(-45)"/><path class="cls-4" d="M25.1 66.3a2 2 0 0 1 0-4H84.8a2 2 0 1 1 0 4Z"/><path class="cls-4" d="M82.8 66.3H70.5v6.2a6.2 6.2 0 0 0 12.3 0Zm-14.3-4H86.8V72.4a10.1 10.1 0 0 1-20.3 0V62.3Z"/><path class="cls-4" d="M74.7 64.3a2 2 0 1 1 4 0v5.5a2 2 0 1 1-4 0Z"/><path class="cls-3" d="M76.6 71.8a2 2 0 0 1-2-2V66.3H70.5v6.2a6.2 6.2 0 0 0 12.3 0V66.3H78.6v3.5a2 2 0 0 1-2 2"/></g></g></svg>