<svg xmlns="http://www.w3.org/2000/svg" width="396" height="396" viewBox="0 0 396.2 396.2"><style>.a{fill:#d4aa00;}</style><path d="M344.5 0.6H51.7C23.2 0.6 0 23.7 0 52.2v291.7c0 28.5 23.2 51.7 51.7 51.7h292.9c28.5 0 51.7-23.2 51.7-51.7V52.2C396.2 23.7 373 0.6 344.5 0.6Zm31 51.7V187.8H208.5V21.2h136.1c17.1 0 31 13.9 31 31zM51.7 21.2H187.8V187.8H20.7V52.2c0-17.1 13.9-31 31-31zM20.7 344V208.5H187.8V375H51.7c-17.1 0-31-13.9-31-31zm323.9 31H208.5V208.5h167.1v135.5c0 17.1-13.9 31-31 31z"/><path d="m58.5 119.3h37v37c0 5.7 4.6 10.3 10.3 10.3 5.7 0 10.3-4.6 10.3-10.3v-37h37c5.7 0 10.3-4.6 10.3-10.3 0-5.7-4.6-10.3-10.3-10.3h-37V61.6c0-5.7-4.6-10.3-10.3-10.3-5.7 0-10.3 4.6-10.3 10.3v37h-37c-5.7 0-10.3 4.6-10.3 10.3 0 5.7 4.6 10.3 10.3 10.3z" fill="#338000"/><path d="m59.1 339.9c2 2 4.7 3 7.3 3 2.6 0 5.3-1 7.3-3l32.2-32.1 32.2 32.2c2 2 4.7 3 7.3 3 2.6 0 5.3-1 7.3-3 4-4 4-10.6 0-14.6l-32.2-32.1 32.2-32.1c4-4 4-10.6 0-14.6-4-4-10.6-4-14.6 0l-32.2 32.1-32.1-32.1c-4-4-10.6-4-14.6 0-4 4-4 10.6 0 14.6l32.1 32.1-32.2 32.1c-4 4-4 10.6 0 14.6z" fill="#003380"/><path d="m329 98.6-77.4 0c-5.7 0-10.3 4.6-10.3 10.3 0 5.7 4.6 10.3 10.3 10.3l77.4 0c5.7 0 10.3-4.6 10.3-10.3 0-5.7-4.6-10.3-10.3-10.3z" fill="#a00"/><circle r="10.3" cy="260.1" cx="290.3" class="a"/><path d="m329 282.8-77.4 0c-5.7 0-10.3 4.6-10.3 10.3 0 5.7 4.6 10.3 10.3 10.3l77.4 0c5.7 0 10.3-4.6 10.3-10.3 0-5.7-4.6-10.3-10.3-10.3z" class="a"/><circle r="10.3" cy="326.2" cx="290.3" class="a"/></svg>
